<svg width="368" height="52" viewBox="0 0 368 52" fill="none" xmlns="http://www.w3.org/2000/svg">
    <g clip-path="url(#clip0_902_28)">
        <path d="M40.2087 31.3755C39.4083 31.8293 39.0082 32.6273 39.0082 33.7713V48.7366C39.0082 48.7764 38.9688 48.8356 38.8908 48.9144C37.949 49.6265 36.9142 50.2036 35.8158 50.6293C34.6974 51.0653 33.5403 51.3924 32.3603 51.6062C31.1792 51.8209 29.9857 51.9591 28.7871 52.0199C27.596 52.0788 26.4341 52.1078 25.3021 52.1078C23.5832 52.1078 21.8462 52.0486 20.0891 51.9304C17.0039 51.6937 14.2219 50.9057 11.7428 49.5644C9.26263 48.2239 7.15382 46.4796 5.41718 44.3296C3.6794 42.1808 2.34218 39.7356 1.40515 36.9946C0.467731 34.2542 -0.000976562 31.3656 -0.000976562 28.3289C-0.000976562 24.8189 0.623336 21.7134 1.8731 19.0125C3.12248 16.3119 4.83111 14.0434 6.99822 12.2101C9.16609 10.3767 11.6932 8.99676 14.5831 8.06917C17.4722 7.14312 20.5574 6.67932 23.8376 6.67932C25.5947 6.67932 27.3609 6.77797 29.138 6.9745C30.8881 7.1691 32.6356 7.38604 34.3801 7.62526C35.1608 7.74417 35.9324 7.86194 36.6934 7.98047C37.4551 8.099 38.2256 8.19765 39.0066 8.27603C39.1623 8.27603 39.241 8.35556 39.241 8.5127C39.1648 9.9082 39.028 11.2996 38.831 12.683C38.6338 14.0531 38.4387 15.4234 38.2457 16.7941C38.2063 17.0705 38.1669 17.3366 38.1283 17.5924C38.0889 17.8494 38.0495 18.0949 38.0109 18.3319C38.0109 18.4508 37.942 18.5196 37.8057 18.5391C37.6683 18.5594 37.5805 18.5097 37.5418 18.3912C37.2295 16.6958 36.6639 15.2368 35.8438 14.014C35.0234 12.792 34.0178 11.7765 32.8275 10.9678C31.636 10.1599 30.2984 9.56838 28.8151 9.19291C27.3306 8.81859 25.7886 8.63047 24.1878 8.63047C21.4937 8.63047 18.984 9.0847 16.6616 9.99164C14.3378 10.8994 12.3168 12.1707 10.5991 13.8071C8.881 15.444 7.52447 17.4158 6.52875 19.7221C5.53455 22.0296 5.03669 24.5639 5.03669 27.3237C5.03669 30.321 5.58263 33.1496 6.67679 35.8116C7.76981 38.4735 9.26339 40.8009 11.1575 42.7914C13.0509 44.7839 15.296 46.3611 17.8932 47.5242C20.4889 48.6873 23.2909 49.2685 26.2982 49.2685C27.5862 49.2685 28.8942 49.1205 30.222 48.8246C31.549 48.5294 32.6821 47.8886 33.6195 46.9029V33.5935C33.6195 32.6472 33.3269 32.0071 32.7412 31.6714C32.1555 31.3369 31.491 31.0501 30.7497 30.8138C30.432 30.7332 30.119 30.6344 29.8123 30.5179C29.4992 30.3997 29.1876 30.2426 28.8749 30.0449C28.7575 29.9661 28.7185 29.8774 28.7575 29.7788C28.7962 29.6809 28.8749 29.6308 28.9915 29.6308C31.3343 29.6308 33.6479 29.6515 35.9324 29.6901C38.2169 29.7299 40.5305 29.8086 42.8733 29.9268L42.932 30.3997C41.9162 30.597 41.0083 30.9224 40.2087 31.3755V31.3755ZM71.0465 47.0803C70.5292 47.0389 70.0118 46.9994 69.4942 46.9617C69.1732 46.9214 68.851 46.892 68.528 46.8734C68.1867 46.8531 67.8448 46.8431 67.5028 46.8436C66.604 46.8436 65.7063 46.8834 64.8087 46.9625C63.9099 47.042 63.0118 47.1204 62.1142 47.1988C61.9964 47.1988 61.9177 47.1395 61.8798 47.0214C61.8404 46.9028 61.8798 46.805 61.9968 46.7258L64.2813 45.6025C63.623 43.7651 62.9297 41.9407 62.202 40.1302C61.4668 38.3031 60.7737 36.4591 60.1231 34.5995H51.0443C50.7573 35.3571 50.4742 36.1162 50.1951 36.8768C49.8128 37.9142 49.4517 38.9594 49.1119 40.0117C48.7802 41.031 48.4676 42.0565 48.1745 43.0877C47.9007 44.0543 47.7644 44.7536 47.7644 45.1876C47.7644 45.7787 48.0177 46.1638 48.5262 46.3408C49.0331 46.5186 49.5219 46.6471 49.9902 46.7258V47.1988C49.2482 47.1204 48.4868 47.0508 47.7061 46.9916C46.1464 46.874 44.5803 46.874 43.0206 46.9916C42.2391 47.0508 41.4585 47.1204 40.6778 47.1988C40.5608 47.2386 40.4919 47.1797 40.4726 47.0214C40.4525 46.8642 40.5017 46.7652 40.6191 46.7258C42.7662 46.4501 44.2703 45.3058 45.129 43.295V43.3539C46.261 40.4759 47.3548 37.5964 48.4092 34.7176C49.4676 31.8278 50.5025 28.9292 51.5137 26.0222C52.216 24.0508 52.8994 22.0885 53.5635 20.1362C54.2348 18.163 54.9377 16.2009 55.6719 14.2507C55.7105 14.1325 55.7893 14.0733 55.9059 14.0733C56.0232 14.0733 56.1012 14.1325 56.1402 14.2507C56.3333 14.7974 56.5385 15.3397 56.7555 15.8772C56.9715 16.415 57.1765 16.9573 57.3703 17.5037C58.9861 21.9606 60.6557 26.3974 62.3788 30.8131C64.1197 35.2779 66.1044 39.6419 68.3236 43.8849C68.7919 44.793 69.3871 45.443 70.1098 45.8372C70.8318 46.2311 71.6621 46.4677 72.5991 46.5465V47.0195C72.0509 47.1005 71.5341 47.12 71.0465 47.0803V47.0803ZM55.6128 20.3439C54.9652 22.3805 54.3308 24.4214 53.7096 26.4665C53.0769 28.5404 52.4033 30.6013 51.689 32.648H59.2448L55.6128 20.3439V20.3439ZM114.867 47.1391H110.123C108.561 47.1391 107.018 47.1005 105.496 47.021C105.261 47.021 105.183 46.9224 105.261 46.7254C105.3 46.6467 105.329 46.5679 105.349 46.4891C105.369 46.4074 105.399 46.3282 105.436 46.2529L105.788 45.188C105.905 44.8328 105.964 44.4982 105.964 44.182C105.964 41.9346 105.855 39.7161 105.641 37.5279C105.424 35.3265 105.18 33.1279 104.909 30.9327C104.77 29.7388 104.624 28.5459 104.469 27.3539C104.332 26.3101 104.225 25.0973 104.147 23.7162C102.675 26.5708 101.249 29.4498 99.8713 32.352C98.5045 35.2311 97.1374 38.1489 95.7718 41.1064C95.3086 42.0801 94.8497 43.0559 94.3948 44.0337C93.9404 45.0119 93.4817 45.9881 93.0186 46.9621C92.9792 47.0416 92.9205 47.0806 92.8429 47.0806C92.7642 47.0806 92.6862 47.0416 92.6086 46.9621C90.8121 44.4386 89.2598 41.8654 87.9522 39.2432C86.6528 36.64 85.4127 34.007 84.2328 31.3464C83.6665 30.0988 83.1101 28.8467 82.5635 27.5902C82.0176 26.3439 81.4417 25.1112 80.8364 23.8932C80.7226 24.8499 80.6053 25.8062 80.4843 26.762C80.3669 27.6892 80.2503 28.6061 80.1329 29.5123C79.823 31.9332 79.5496 34.3588 79.3129 36.7881C79.0767 39.2257 78.9593 41.6735 78.9611 44.1228C78.9611 44.8324 79.1368 45.3157 79.4885 45.5719C79.8403 45.8292 80.2692 46.0559 80.7769 46.2525C80.9325 46.3316 81.1476 46.4199 81.4209 46.5178C81.6939 46.6176 81.8696 46.6857 81.9483 46.7251C82.0661 46.8042 82.1039 46.9025 82.0661 47.0206C82.0267 47.1388 81.9483 47.198 81.8317 47.198C81.2846 47.198 80.7481 47.1892 80.2211 47.1686C79.6837 47.1484 79.1466 47.1189 78.6102 47.0803C78.064 47.041 77.5173 47.0114 76.9701 46.9916C76.4226 46.9724 75.8759 46.9625 75.33 46.9625H74.1582C73.8069 46.9625 73.4162 47.0023 72.9868 47.081C72.8695 47.1208 72.7907 47.0611 72.7525 46.9036C72.7131 46.7465 72.7525 46.6471 72.8702 46.6081C73.1822 46.5293 73.4162 46.4895 73.5729 46.4895C73.9488 46.4238 74.3204 46.3349 74.6856 46.2234C74.9976 46.1251 75.2906 45.8594 75.564 45.4251C75.642 45.3058 75.7483 44.7949 75.8862 43.8869C76.0224 42.9803 76.1788 41.8271 76.3549 40.4266C76.5305 39.0275 76.7255 37.4396 76.9402 35.6651C77.1583 33.8526 77.3633 32.0386 77.5554 30.2231C77.7504 28.3702 77.9454 26.5468 78.1411 24.7516C78.3361 22.9576 78.5117 21.3112 78.6681 19.8124C78.8237 18.5112 78.9415 17.3577 79.0198 16.3521C79.0978 15.3465 79.1754 14.6273 79.2542 14.1929C79.2542 14.0744 79.3026 14.0067 79.4007 13.9857C79.498 13.9666 79.5858 13.9956 79.6646 14.0744C80.1325 14.5875 80.7962 15.6031 81.6556 17.1206C82.5143 18.6393 83.4423 20.4035 84.438 22.4147C85.4872 24.5369 86.522 26.6664 87.5421 28.803C88.5383 30.888 89.5242 32.978 90.4998 35.0728C91.1635 36.4539 91.7098 37.6369 92.1399 38.6222C92.5696 39.6083 92.9599 40.4365 93.3116 41.1064C93.9789 39.7518 94.6135 38.381 95.2149 36.9953C95.8589 35.5164 96.4934 34.0478 97.1185 32.5887C98.5128 29.3324 99.9577 26.0984 101.453 22.888C102.975 19.6151 104.595 16.6974 106.314 14.1337C106.392 14.0549 106.47 14.0255 106.548 14.0446C106.626 14.0652 106.666 14.1337 106.666 14.2518C106.744 14.7248 106.812 15.3859 106.871 16.2336C106.93 17.0824 107.017 18.0578 107.134 19.1616C107.252 20.6211 107.398 22.2181 107.574 23.9529C107.749 25.6884 107.934 27.4633 108.13 29.2764C108.325 31.0906 108.52 32.8552 108.716 34.5704C108.892 36.1418 109.097 37.7097 109.331 39.2734C109.545 40.6931 109.75 41.886 109.946 42.8514C110.141 43.8184 110.336 44.4195 110.532 44.6554C110.961 45.287 111.371 45.6912 111.762 45.8686C112.151 46.0464 112.62 46.1749 113.167 46.2536C113.44 46.3328 113.724 46.3821 114.017 46.4016C114.31 46.4219 114.612 46.5102 114.924 46.6673L114.867 47.1391V47.1391ZM133.649 44.1522C133.528 45.029 133.41 45.9064 133.297 46.7843C133.297 46.9032 133.218 46.9621 133.063 46.9621L133.005 47.021C132.692 47.1391 132.439 47.1984 132.244 47.1984C131.345 47.1984 130.437 47.19 129.52 47.169C128.612 47.1492 127.704 47.1393 126.797 47.1391C126.016 47.1391 125.254 47.1303 124.512 47.1105C123.751 47.0901 122.989 47.0802 122.228 47.0806C121.174 47.0806 120.109 47.0902 119.036 47.1105C117.961 47.1303 116.898 47.1602 115.844 47.1984V46.7254C116.429 46.7254 116.907 46.5977 117.279 46.3404C117.64 46.0947 117.933 45.7585 118.128 45.3646C118.323 44.9708 118.45 44.5269 118.509 44.0337C118.567 43.5416 118.596 43.0384 118.596 42.5261V17.9186C118.596 17.1302 118.411 16.6178 118.04 16.3811C117.662 16.1411 117.259 15.9427 116.839 15.7896L116.048 15.5231C115.755 15.4253 115.453 15.2769 115.141 15.0796C115.062 15.0009 115.033 14.9121 115.053 14.8135C115.072 14.7156 115.141 14.6655 115.258 14.6655H131.95C132.111 14.5847 132.278 14.5154 132.448 14.4583C132.624 14.399 132.789 14.331 132.946 14.2511C133.141 14.1727 133.238 14.2511 133.238 14.4877C133.131 15.4497 132.985 16.4067 132.799 17.3565C132.624 18.2436 132.438 19.141 132.243 20.0479C132.203 20.1664 132.116 20.2158 131.979 20.1959C131.842 20.1764 131.774 20.1076 131.774 19.9886C131.695 18.6087 131.227 17.7026 130.369 17.2674C129.509 16.8339 128.455 16.6171 127.206 16.6171H122.579V28.7434H129.373C129.568 28.7434 129.821 28.6845 130.134 28.5656C130.446 28.4471 130.758 28.3293 131.071 28.2108C131.479 27.9832 131.912 27.8045 132.36 27.6781C132.555 27.5998 132.653 27.6781 132.653 27.9144C132.613 28.3874 132.565 28.9009 132.506 29.4523C132.453 29.9668 132.384 30.4796 132.301 30.9901C132.22 31.4802 132.162 31.9736 132.125 32.469C132.088 32.9642 132.029 33.4575 131.949 33.9476C131.949 34.0661 131.9 34.1456 131.803 34.1843C131.705 34.224 131.617 34.2045 131.54 34.125C131.344 33.9281 131.218 33.7316 131.159 33.5335C131.094 33.3156 131.026 33.0988 130.954 32.8831C130.875 32.6468 130.797 32.4101 130.719 32.1735C130.641 31.9368 130.504 31.7204 130.309 31.5231C130.113 31.3262 129.753 31.1786 129.226 31.0792C128.663 30.976 128.097 30.8972 127.527 30.8429C126.934 30.7846 126.337 30.7551 125.741 30.7546H122.636V42.9398C123.222 43.8081 124.051 44.4684 125.125 44.9215C126.199 45.3757 127.243 45.6017 128.258 45.6017C129.625 45.6017 130.786 45.2373 131.743 44.5074C132.7 43.7783 133.334 42.7432 133.647 41.4019L134.115 41.5205C133.928 42.3916 133.772 43.2695 133.649 44.1522V44.1522ZM169.364 26.3996C169.341 26.4676 169.291 26.4963 169.212 26.4844C169.134 26.4737 169.095 26.4336 169.095 26.3655C169.095 25.6188 168.894 25.0931 168.49 24.7876C168.087 24.4824 167.527 24.3295 166.81 24.3295C166.496 24.3295 166.199 24.3467 165.919 24.3807C165.639 24.4144 165.342 24.4538 165.028 24.4993C164.804 24.5451 164.558 24.5792 164.289 24.6017C164.021 24.6247 163.774 24.6358 163.55 24.6358V31.2868H168.086C168.242 31.2868 168.422 31.2187 168.623 31.0834C168.825 30.9476 168.982 30.8115 169.094 30.6766C169.138 30.6314 169.189 30.62 169.245 30.6421C169.301 30.6655 169.329 30.7102 169.329 30.7779C169.244 31.9965 169.087 33.209 168.859 34.4087C168.836 34.4768 168.786 34.5051 168.708 34.4936C168.629 34.4829 168.59 34.4424 168.59 34.3747C168.612 33.6279 168.427 33.1137 168.036 32.8307C167.643 32.5482 167.089 32.4071 166.372 32.4071H163.549V39.1938C163.549 39.4646 163.605 39.7475 163.717 40.0423C163.829 40.3363 163.986 40.5963 164.188 40.8227C164.39 41.049 164.624 41.2291 164.893 41.3656C165.162 41.501 165.453 41.569 165.767 41.569V41.8405H165.532C165.285 41.8405 165.05 41.829 164.826 41.8068C164.602 41.7843 164.366 41.7621 164.121 41.7384C163.886 41.7173 163.651 41.7004 163.415 41.6879C163.191 41.6765 162.967 41.6707 162.743 41.6707C162.52 41.6707 162.295 41.6822 162.072 41.7048L161.4 41.7724C160.886 41.817 160.371 41.8397 159.855 41.8405H159.653C159.586 41.8405 159.547 41.8007 159.535 41.7212C159.524 41.6421 159.552 41.5916 159.619 41.569C160.022 41.5006 160.336 41.4165 160.56 41.3144C160.783 41.2123 160.946 41.0769 161.047 40.9072C161.148 40.7378 161.204 40.5233 161.215 40.2621C161.226 40.0021 161.231 39.6683 161.231 39.2615V25.0766C161.231 24.5562 161.13 24.2339 160.929 24.1093C160.71 23.978 160.472 23.8809 160.224 23.8214C160.086 23.7666 159.946 23.7156 159.805 23.6684C159.621 23.6053 159.447 23.5198 159.284 23.4138C159.217 23.3686 159.194 23.3178 159.217 23.2612C159.239 23.2054 159.284 23.1763 159.351 23.1763C160.763 23.244 162.184 23.2784 163.618 23.2784H166.004C166.115 23.2784 166.233 23.2841 166.357 23.2956C166.479 23.3067 166.608 23.3124 166.743 23.3124C167.257 23.3354 167.79 23.3354 168.339 23.3124C168.888 23.2899 169.363 23.1656 169.766 22.9389C169.811 22.8934 169.861 22.8934 169.918 22.9389C169.973 22.9844 169.99 23.041 169.968 23.1086L169.364 26.3996V26.3996Z"
              fill="white"/>
        <path d="M352.685 9.6999C352.644 11.0894 352.459 12.3423 352.132 13.4615C352.09 13.5857 352.008 13.6477 351.885 13.6477C351.762 13.6477 351.68 13.5857 351.639 13.4615C351.433 12.4257 351.115 11.5868 350.684 10.9433C350.266 10.3133 349.707 9.7916 349.052 9.4204C348.396 9.04722 347.657 8.78913 346.836 8.64307C345.982 8.49571 345.117 8.42293 344.25 8.42552H188.056V44.7372C188.056 46.3955 188.579 47.8052 189.626 48.9656C190.672 50.1268 191.975 50.8308 193.535 51.08C193.658 51.1206 193.709 51.2146 193.689 51.3588C193.667 51.5041 193.596 51.576 193.473 51.576C192.028 51.4514 190.581 51.3479 189.133 51.2655C187.675 51.1829 186.208 51.1416 184.731 51.1416C183.663 51.1416 182.607 51.1722 181.56 51.2345C180.514 51.2968 179.457 51.3699 178.389 51.4521C178.266 51.4521 178.194 51.3802 178.174 51.2345C178.152 51.09 178.205 50.9963 178.328 50.9554C179.314 50.7482 180.083 50.5199 180.637 50.2714C181.191 50.0225 181.601 49.6917 181.868 49.2757C182.135 48.862 182.3 48.3336 182.361 47.6905C182.423 47.0478 182.454 46.2288 182.454 45.2343V8.48707H172.295C170.981 8.48707 169.822 8.95316 168.817 9.8861C167.811 10.8187 167.062 11.8659 166.57 13.026C166.487 13.1502 166.394 13.2026 166.293 13.1812C166.19 13.1606 166.139 13.0879 166.139 12.9637C166.056 12.5496 166.016 12.1768 166.016 11.8445C166.016 11.016 166.118 10.2077 166.323 9.41963C166.644 8.19904 166.993 6.98615 167.37 5.78193C167.493 5.38887 167.596 5.00499 167.678 4.63143C167.76 4.38328 167.883 4.34199 168.048 4.50716C168.91 5.04628 169.75 5.38887 170.572 5.53378C171.393 5.67907 172.336 5.75096 173.404 5.75096H348.869C349.197 5.75096 349.555 5.69934 349.946 5.59572C350.336 5.4921 350.695 5.39919 351.024 5.31622C351.259 5.27008 351.495 5.22865 351.732 5.19196C351.998 5.15143 352.276 5.10899 352.563 5.06769C352.686 5.06769 352.748 5.15143 352.748 5.31622V5.81328C352.745 7.10905 352.724 8.40473 352.685 9.6999V9.6999Z"
              fill="white"/>
        <path d="M225.782 47.317C223.734 47.1988 221.683 47.1394 219.632 47.1388C218.89 47.1388 218.158 47.1488 217.436 47.1687C216.713 47.1897 215.961 47.2184 215.18 47.257C215.063 47.257 214.995 47.1889 214.976 47.0501C214.955 46.9121 215.005 46.8238 215.123 46.784C216.332 46.4288 217.114 45.9558 217.465 45.3643C217.817 44.7728 217.993 43.8464 217.993 42.5842V30.2813H200.012V42.7028C200.012 45.1873 201.281 46.5481 203.819 46.7844C203.937 46.7844 203.995 46.8639 203.995 47.0211C203.995 47.1794 203.937 47.2574 203.819 47.2574H202.003C201.456 47.2574 200.871 47.278 200.246 47.3162C199.816 47.3162 199.318 47.3262 198.752 47.3457C198.186 47.3663 197.688 47.3751 197.26 47.3751H195.795C195.287 47.3751 194.779 47.3556 194.273 47.3162C194.117 47.3162 193.93 47.3074 193.716 47.2872C193.531 47.2687 193.345 47.2587 193.159 47.2574C193.042 47.2574 192.974 47.1889 192.955 47.0505C192.934 46.9125 192.984 46.8242 193.101 46.7844C193.725 46.6659 194.233 46.5385 194.623 46.4001C195.013 46.2625 195.307 46.0656 195.502 45.8082C195.697 45.5521 195.824 45.2267 195.883 44.8321C195.941 44.4387 195.97 43.9255 195.97 43.2947V18.0961C195.97 17.2289 195.628 16.5785 194.945 16.1445C194.262 15.7113 193.53 15.4747 192.749 15.4349V14.9619C194.388 15.0805 196.008 15.1397 197.61 15.1397C198.274 15.1397 198.937 15.1305 199.602 15.1099C200.265 15.0908 200.929 15.0805 201.593 15.0805H202.824C202.941 15.0805 202.999 15.16 202.999 15.3171C202.999 15.4754 202.941 15.5538 202.824 15.5538C202.121 15.5538 201.486 15.7706 200.92 16.2046C200.353 16.6389 200.071 17.2495 200.071 18.0383V28.3305H217.994V18.2746C217.994 17.3275 217.75 16.7269 217.261 16.4699C216.772 16.2141 216.178 15.9874 215.475 15.7901C215.328 15.7535 215.181 15.7138 215.035 15.6712C214.889 15.6297 214.743 15.5901 214.596 15.5527C214.479 15.5133 214.43 15.4253 214.45 15.2865C214.469 15.1489 214.537 15.0797 214.655 15.0797C217.258 15.2466 219.867 15.2958 222.474 15.2273C223.274 15.2078 224.065 15.1783 224.847 15.139C224.964 15.139 225.032 15.2082 225.052 15.3458C225.071 15.4842 225.023 15.5733 224.905 15.6119C224.046 15.7698 223.362 15.9966 222.855 16.2917C222.347 16.5877 222.094 17.2289 222.094 18.2142V42.4665C222.094 43.8078 222.386 44.813 222.972 45.4832C223.558 46.1547 224.514 46.607 225.842 46.844L225.782 47.317V47.317ZM257.195 47.7605C256.495 47.9352 255.778 48.0245 255.057 48.0267C253.886 48.0267 252.831 47.8102 251.894 47.3759C250.957 46.9427 250.118 46.3909 249.376 45.7195C248.634 45.0497 247.941 44.2804 247.297 43.4128C246.653 42.5464 246.038 41.6587 245.453 40.7512C244.9 39.9164 244.324 39.0978 243.725 38.2965C243.118 37.489 242.456 36.7591 241.733 36.1079C241.011 35.4568 240.23 34.9353 239.39 34.5403C238.551 34.1465 237.604 33.9484 236.55 33.9484H235.612C235.338 33.9484 235.046 33.9882 234.734 34.067V42.4665C234.734 43.6105 235.075 44.5866 235.759 45.3942C236.442 46.2028 237.349 46.6659 238.482 46.7844V47.2574C237.594 47.1799 236.706 47.1109 235.817 47.0505C234.93 46.9911 234.042 46.9617 233.153 46.9622C232.254 46.9622 231.385 47.0019 230.546 47.0807C229.705 47.1602 228.837 47.2581 227.939 47.3759C227.821 47.4157 227.734 47.3671 227.676 47.2279C227.618 47.0903 227.647 46.9817 227.764 46.9025C228.583 46.5087 229.266 45.9176 229.814 45.1277C230.36 44.3392 230.633 43.4916 230.633 42.5839V18.9835C230.633 18.0766 230.311 17.2782 229.667 16.5877C229.023 15.8979 228.251 15.4337 227.353 15.1971C227.236 15.1581 227.187 15.0697 227.207 14.9313C227.226 14.7937 227.294 14.7241 227.411 14.7241H238.95C240.16 14.7241 241.352 14.8721 242.524 15.1676C243.695 15.4632 244.729 15.9274 245.627 16.5579C246.525 17.1887 247.247 18.0165 247.795 19.042C248.341 20.0679 248.615 21.2899 248.615 22.7095C248.615 24.6022 248.097 26.3973 247.062 28.0919C246.027 29.788 244.866 31.2475 243.577 32.4695C244.007 32.9421 244.475 33.5443 244.983 34.2734C245.518 35.0415 246.064 35.8008 246.623 36.5511C247.513 37.7769 248.421 38.9896 249.347 40.1888C250.303 41.4311 251.309 42.5548 252.363 43.5604C253.417 44.5664 254.51 45.3552 255.643 45.9264C256.775 46.4984 257.927 46.7056 259.098 46.5477L259.274 47.0207C258.608 47.3378 257.911 47.5857 257.195 47.7605V47.7605ZM244.016 21.8225C243.724 20.7974 243.284 19.871 242.699 19.0424C242.12 18.2213 241.383 17.5271 240.531 17.0018C239.672 16.4692 238.677 16.2034 237.544 16.2034C237.076 16.2034 236.607 16.2329 236.138 16.2917C235.672 16.3504 235.218 16.4801 234.79 16.6764V31.405C235.454 31.5235 236.098 31.6027 236.723 31.6413C237.366 31.6814 238.011 31.701 238.655 31.7002C240.842 31.7002 242.355 31.0999 243.195 29.8959C244.034 28.6934 244.454 27.0271 244.454 24.8974C244.456 23.8734 244.31 22.8483 244.016 21.8225V21.8225ZM286.943 38.3554C286.025 40.3077 284.806 41.9931 283.282 43.4128C281.76 44.8329 279.993 45.9375 277.982 46.7255C275.971 47.5147 273.853 47.9089 271.627 47.9089C269.791 47.9089 267.888 47.4554 265.917 46.5481C263.946 45.6425 262.121 44.4463 260.498 42.9987C258.858 41.5408 257.501 39.8841 256.427 38.0304C255.353 36.1768 254.817 34.304 254.817 32.411C254.817 29.533 255.08 27.0577 255.608 24.9872C256.135 22.9168 256.984 21.1629 258.155 19.7222C259.328 18.283 260.869 17.1004 262.783 16.1736C264.696 15.2475 267.038 14.4878 269.811 13.8959L270.573 13.8367C273.072 13.6397 275.395 14.0049 277.543 14.931C279.69 15.8578 281.564 17.1593 283.166 18.8348C284.767 20.5114 286.026 22.4924 286.944 24.7792C287.861 27.0665 288.32 29.4718 288.32 31.9957C288.32 34.2837 287.86 36.4031 286.943 38.3554ZM271.045 15.792C270.557 15.7995 270.07 15.8321 269.586 15.8895L269.585 45.752C270.057 45.8549 270.543 45.9264 271.044 45.9688L271.045 15.792ZM274.534 45.8132C275.577 45.6266 276.541 45.31 277.426 44.8623C278.949 44.093 280.227 43.0687 281.262 41.7859C282.296 40.505 283.078 39.0165 283.606 37.3204C284.132 35.625 284.395 33.8307 284.395 31.9376C284.395 30.006 284.112 28.0739 283.547 26.1408C282.981 24.2091 282.141 22.4736 281.028 20.9358C279.916 19.398 278.548 18.1557 276.928 17.209C276.177 16.7706 275.372 16.4322 274.535 16.2023V45.8132H274.534ZM273.519 15.9736C273.036 15.8887 272.549 15.8334 272.059 15.8081V46.0151H272.154C272.622 46.0151 273.077 45.9937 273.519 45.9516V15.9736ZM268.578 16.0501C267.671 16.2329 266.822 16.5101 266.033 16.8832C264.49 17.6135 263.192 18.6191 262.138 19.9008C261.084 21.1828 260.273 22.6614 259.707 24.3368C259.141 26.0135 258.858 27.7975 258.858 29.6902C258.858 31.6623 259.151 33.6146 259.737 35.5459C260.322 37.4783 261.191 39.223 262.343 40.7803C263.495 42.3388 264.891 43.6002 266.531 44.5664C267.178 44.9474 267.865 45.2548 268.579 45.4829L268.578 16.0501V16.0501ZM323.065 15.4047C323.045 15.3852 322.996 15.3959 322.919 15.4345C322.334 15.6052 321.758 15.8026 321.191 16.026C320.585 16.2627 320.284 16.6768 320.284 17.2683L320.342 31.5239V33.9492C320.342 36.2074 320.303 38.4654 320.224 40.7222C320.145 42.9633 320.008 45.2019 319.815 47.4359C319.815 47.5154 319.765 47.5839 319.668 47.6428C319.57 47.7017 319.483 47.6925 319.405 47.6133C317.53 45.9964 315.657 44.2517 313.782 42.3785C311.902 40.5005 310.056 38.5877 308.246 36.641C306.434 34.6932 304.648 32.7213 302.887 30.726C301.188 28.8015 299.509 26.8592 297.85 24.8993C297.344 24.3541 296.855 23.7919 296.386 23.2139C295.917 22.6357 295.428 22.0734 294.922 21.5281C294.807 22.5494 294.748 23.5763 294.746 24.6041C294.746 26.1029 294.765 27.6014 294.805 29.0994C294.843 30.5982 294.902 32.0967 294.98 33.5947C295.137 36.6089 295.215 39.6267 295.215 42.645C295.215 43.3161 295.273 43.8575 295.39 44.2716C295.508 44.6857 295.654 45.0114 295.83 45.2481C296.005 45.4844 296.219 45.6526 296.474 45.7505C296.727 45.8495 296.99 45.9187 297.264 45.9574C297.577 46.0369 297.888 46.1252 298.202 46.2235C298.514 46.3225 298.884 46.5294 299.315 46.8444C299.393 46.9236 299.421 47.0119 299.402 47.1109C299.382 47.2096 299.315 47.2585 299.196 47.2585C298.806 47.2191 298.425 47.1805 298.055 47.1396C297.683 47.101 297.303 47.0612 296.912 47.0214C296.358 46.9423 295.801 46.883 295.243 46.8437C294.687 46.8047 294.13 46.7851 293.573 46.7848C292.849 46.7867 292.125 46.8361 291.406 46.9327C290.664 47.0322 289.922 47.1396 289.18 47.2585C289.063 47.2983 288.976 47.2585 288.917 47.1396C288.859 47.0215 288.868 46.9236 288.946 46.8444C289.258 46.5687 289.541 46.3516 289.796 46.194C290.034 46.0453 290.278 45.907 290.528 45.7796C290.996 45.5433 291.416 45.2175 291.787 44.8038C292.158 44.3897 292.344 43.7294 292.344 42.8217V15.1393L292.812 14.1922C292.851 14.1135 292.909 14.055 292.988 14.0148C293.066 13.9758 293.124 13.9953 293.164 14.0737C297.321 18.4249 301.44 22.8121 305.523 27.2347C309.605 31.6627 313.646 36.1289 317.646 40.6327V40.4553C317.646 38.6418 317.637 36.8467 317.617 35.0725C317.597 33.298 317.568 31.4845 317.529 29.6309C317.49 27.9355 317.451 26.132 317.412 24.2187C317.373 22.3065 317.354 20.5022 317.354 18.8065C317.354 18.1366 317.285 17.594 317.149 17.18C317.012 16.7659 316.826 16.4504 316.592 16.2329C316.358 16.0168 316.103 15.8692 315.831 15.7897C315.561 15.7122 315.288 15.6528 315.011 15.6119C314.725 15.5774 314.442 15.528 314.161 15.464C313.905 15.4038 313.671 15.2704 313.488 15.0797C313.409 15.0009 313.4 14.9023 313.459 14.7837C313.518 14.6656 313.586 14.627 313.664 14.6656C314.562 14.7837 315.401 14.843 316.182 14.843H318.642C319.15 14.843 319.667 14.8342 320.195 14.8136C320.732 14.7947 321.269 14.8045 321.805 14.843C322.001 14.843 322.215 14.8533 322.449 14.8728C322.664 14.8919 322.879 14.9017 323.094 14.9023L323.211 15.3756C323.133 15.4146 323.085 15.425 323.065 15.4047V15.4047ZM345.241 44.1523C345.12 45.0291 345.003 45.9065 344.89 46.7844C344.89 46.9033 344.811 46.9622 344.655 46.9622L344.597 47.0211C344.284 47.1392 344.03 47.1985 343.835 47.1985C342.937 47.1985 342.029 47.1901 341.112 47.169C340.204 47.1493 339.296 47.1393 338.388 47.1392C337.607 47.1392 336.846 47.1304 336.105 47.1105C335.343 47.0902 334.582 47.0803 333.821 47.0807C332.766 47.0807 331.702 47.0903 330.628 47.1105C329.553 47.1304 328.49 47.1602 327.436 47.1985V46.7255C328.021 46.7255 328.499 46.5978 328.871 46.3405C329.232 46.0947 329.525 45.7585 329.72 45.3647C329.915 44.9709 330.042 44.527 330.1 44.0337C330.159 43.5417 330.188 43.0385 330.188 42.5261V17.9187C330.188 17.1302 330.003 16.6179 329.631 16.3812C329.253 16.1411 328.851 15.9427 328.43 15.7897L327.64 15.5232C327.348 15.4253 327.044 15.277 326.733 15.0797C326.654 15.0009 326.625 14.9122 326.645 14.8136C326.664 14.7157 326.733 14.6656 326.85 14.6656H343.543C343.698 14.5868 343.866 14.5176 344.04 14.4584C344.211 14.4016 344.377 14.3324 344.538 14.2511C344.733 14.1727 344.831 14.2511 344.831 14.4878C344.723 15.4497 344.576 16.4067 344.391 17.3566C344.215 18.2437 344.03 19.141 343.835 20.048C343.795 20.1665 343.707 20.2158 343.571 20.196C343.434 20.1765 343.366 20.1076 343.366 19.9887C343.288 18.6088 342.819 17.7026 341.961 17.2675C341.101 16.8339 340.046 16.6171 338.798 16.6171H334.17V28.7434H340.964C341.159 28.7434 341.413 28.6846 341.726 28.5657L342.663 28.2108C343.071 27.9833 343.503 27.8045 343.952 27.6782C344.147 27.5998 344.244 27.6782 344.244 27.9145C344.204 28.3875 344.156 28.901 344.098 29.4523C344.044 29.9668 343.975 30.4796 343.893 30.9902C343.812 31.4802 343.753 31.9737 343.717 32.4691C343.679 32.9643 343.621 33.4576 343.541 33.9477C343.541 34.0662 343.492 34.1457 343.394 34.1843C343.297 34.2241 343.208 34.2046 343.13 34.1251C342.935 33.9282 342.809 33.7316 342.75 33.5336C342.685 33.3159 342.616 33.0991 342.545 32.8832C342.466 32.6469 342.389 32.4102 342.311 32.1735C342.232 31.9369 342.096 31.7205 341.901 31.5232C341.705 31.3262 341.345 31.1787 340.817 31.0792C340.255 30.9761 339.688 30.8973 339.119 30.843C338.526 30.7847 337.929 30.7552 337.332 30.7546H334.228V42.9398C334.814 43.8082 335.643 44.4685 336.717 44.9216C337.791 45.3758 338.835 45.6018 339.85 45.6018C341.216 45.6018 342.378 45.2374 343.335 44.5075C344.291 43.7783 344.925 42.7433 345.238 41.402L345.707 41.5205C345.52 42.3917 345.364 43.2696 345.241 44.1523V44.1523ZM366.846 42.4072C366.124 43.5512 365.206 44.527 364.093 45.3357C362.98 46.1439 361.75 46.776 360.403 47.2279C359.055 47.6822 357.776 47.9081 356.567 47.9081C355.98 47.9081 355.366 47.8393 354.722 47.7009C354.077 47.5632 353.492 47.3373 352.964 47.0211C352.436 46.706 352.007 46.3019 351.675 45.8082C351.344 45.3154 351.178 44.6948 351.178 43.945C351.178 43.4717 351.227 42.998 351.324 42.5254C351.422 42.0524 351.51 41.5993 351.588 41.1642L351.881 39.7449C351.881 39.6264 351.959 39.5671 352.115 39.5671C352.271 39.5671 352.35 39.6264 352.35 39.7449V40.6319C352.35 41.4601 352.525 42.1904 352.876 42.8205C353.22 43.4435 353.677 43.9953 354.224 44.4471C354.77 44.9013 355.405 45.2362 356.127 45.4534C356.849 45.6698 357.582 45.7784 358.324 45.7784C359.027 45.7784 359.749 45.6603 360.492 45.424C361.218 45.1949 361.901 44.845 362.512 44.3886C363.113 43.9405 363.62 43.3779 364.005 42.7326C364.394 42.0818 364.591 41.3626 364.591 40.5734C364.591 39.8248 364.415 39.0853 364.064 38.3554C363.712 37.6263 363.244 36.8868 362.658 36.1374C362.038 35.3498 361.372 34.5993 360.666 33.8895C359.914 33.1308 359.153 32.3815 358.382 31.6417C357.557 30.8483 356.737 30.0497 355.922 29.2459C355.102 28.438 354.379 27.6102 353.755 26.7613C353.13 25.914 352.622 25.056 352.232 24.1885C351.842 23.3213 351.647 22.4346 351.647 21.5269C351.647 20.1872 352.017 19.0336 352.759 18.0662C353.5 17.1008 354.419 16.312 355.512 15.7002C356.604 15.0896 357.796 14.6354 359.085 14.3398C360.373 14.0439 361.564 13.8959 362.658 13.8959C364.22 13.8959 365.646 14.0936 366.934 14.4874C367.052 14.567 367.11 14.6453 367.11 14.7237C366.946 16.7229 366.711 18.7156 366.408 20.698C366.368 20.8161 366.289 20.8758 366.173 20.8758C366.055 20.8758 365.977 20.8161 365.939 20.698C365.626 19.3181 365.031 18.1351 364.152 17.149C363.274 16.1637 362.111 15.67 360.667 15.67C359.183 15.67 357.944 16.1533 356.949 17.1192C355.953 18.0861 355.455 19.3177 355.455 20.8157C355.455 21.6053 355.621 22.3345 355.953 23.0047C356.284 23.6761 356.714 24.3265 357.24 24.9566C357.769 25.5879 358.383 26.2088 359.086 26.8198C359.805 27.4458 360.527 28.067 361.254 28.6834C362.082 29.3617 362.892 30.0619 363.684 30.7833C364.461 31.4885 365.177 32.2605 365.822 33.0904C366.435 33.8798 366.946 34.7442 367.345 35.6633C367.734 36.571 367.93 37.5559 367.93 38.6208C367.929 40.0022 367.568 41.264 366.846 42.4072V42.4072ZM158.015 36.8692C157.493 37.978 156.8 38.9362 155.934 39.7437C155.069 40.5505 154.064 41.1776 152.921 41.6261C151.778 42.0746 150.575 42.299 149.309 42.299C148.266 42.299 147.184 42.0413 146.064 41.5259C144.944 41.0112 143.906 40.3314 142.985 39.5086C142.052 38.68 141.281 37.7383 140.671 36.6849C140.061 35.6315 139.756 34.5667 139.756 33.4911C139.756 31.855 139.906 30.448 140.206 29.2711C140.505 28.0946 140.988 27.0974 141.653 26.2796C142.32 25.4613 143.196 24.7892 144.284 24.2627C145.371 23.7362 146.702 23.3045 148.278 22.968L148.711 22.9344C150.131 22.8227 151.452 23.03 152.673 23.5561C153.875 24.0706 154.962 24.8255 155.868 25.7752C156.778 26.7285 157.493 27.8545 158.015 29.1541C158.536 30.4537 158.797 31.8214 158.797 33.2556C158.797 34.5552 158.536 35.76 158.015 36.8692V36.8692ZM148.979 24.0451C148.694 24.0501 148.418 24.0688 148.15 24.1009V41.0736C148.418 41.1313 148.694 41.1726 148.978 41.1967L148.979 24.0451V24.0451ZM150.962 41.108C151.533 41.0093 152.086 40.8273 152.606 40.5677C153.471 40.1295 154.198 39.548 154.786 38.8192C155.374 38.0912 155.818 37.2451 156.118 36.2812C156.418 35.3172 156.568 34.2975 156.568 33.2212C156.568 32.1235 156.407 31.0253 156.085 29.9272C155.763 28.8291 155.286 27.8426 154.654 26.9686C154.033 26.1051 153.239 25.3834 152.324 24.8503C151.896 24.6016 151.439 24.4093 150.962 24.2783V41.108H150.962ZM150.385 24.1483C150.111 24.1004 149.834 24.069 149.556 24.0543V41.2227H149.61C149.876 41.2227 150.135 41.2108 150.386 41.1864L150.385 24.1483ZM147.577 24.1923C147.078 24.2906 146.593 24.4495 146.131 24.6657C145.254 25.0809 144.517 25.6525 143.917 26.3801C143.318 27.1085 142.857 27.9493 142.536 28.9014C142.214 29.8538 142.053 30.8682 142.053 31.9441C142.053 33.0652 142.22 34.174 142.553 35.2717C142.885 36.3702 143.379 37.3621 144.034 38.2468C144.675 39.1199 145.484 39.8521 146.414 40.3987C146.782 40.6155 147.172 40.7904 147.578 40.9202L147.577 24.1923Z"
              fill="white"/>
    </g>
    <defs>
        <clipPath id="clip0_902_28">
            <rect width="368" height="52" fill="white"/>
        </clipPath>
    </defs>
</svg>
